<svg width="26" height="26" viewBox="0 0 26 26" fill="none" xmlns="http://www.w3.org/2000/svg">
<g clip-path="url(#clip0_1287_10743)">
<path d="M13.4006 22.9996H13.3667C11.8451 23.0229 10.3235 22.9521 8.80995 22.7876C8.24054 22.7784 7.69747 22.5361 7.29797 22.113C6.89847 21.69 6.6746 21.1202 6.67467 20.5266C6.67467 20.5266 6.49767 17.928 6.50143 12.6758C6.50143 7.65907 6.6596 5.70029 6.67843 5.46084C6.6862 4.87062 6.91434 4.3068 7.31442 3.88904C7.7145 3.47129 8.25502 3.23251 8.82125 3.22337C10.1718 3.06817 11.5297 2.99347 12.8885 2.99962C14.3173 3.0004 15.7451 3.07637 17.1666 3.22728C17.737 3.23655 18.281 3.47927 18.6812 3.90303C19.0814 4.3268 19.3057 4.89761 19.3056 5.49225C19.3056 5.49225 19.5052 8.2636 19.5014 12.9074C19.4977 17.5511 19.3018 20.5345 19.2981 20.5659C19.2914 21.1499 19.0673 21.7085 18.6732 22.1237C18.2791 22.5389 17.7456 22.7784 17.1854 22.7916C16.9331 22.8465 16.0104 22.9996 13.4006 22.9996ZM12.9186 3.98097C11.58 3.97407 10.2421 4.04746 8.91163 4.2008H8.85137C8.52573 4.20182 8.21364 4.33684 7.98302 4.57649C7.7524 4.81615 7.6219 5.14105 7.61992 5.48049V5.52759C7.61992 5.52759 7.44668 7.47065 7.44292 12.6718C7.43915 17.873 7.61238 20.4599 7.61238 20.4873C7.6099 20.6581 7.63983 20.8277 7.70046 20.9864C7.76109 21.1451 7.85123 21.2897 7.96568 21.4119C8.08013 21.5341 8.21664 21.6315 8.36735 21.6985C8.51806 21.7655 8.68 21.8008 8.84384 21.8024H8.90786C10.39 21.9664 11.8803 22.0359 13.3705 22.0104L13.4006 22.5011V22.0104C16.259 22.0104 16.9783 21.8298 17.0084 21.822C17.0484 21.8163 17.0889 21.8163 17.1289 21.822C17.4548 21.822 17.7675 21.6873 17.9983 21.4474C18.2292 21.2075 18.3594 20.8821 18.3604 20.5423C18.3604 20.4795 18.56 17.5315 18.56 12.9191C18.56 8.30677 18.3679 5.56683 18.3679 5.53935C18.3709 5.36825 18.3413 5.19824 18.2809 5.03912C18.2205 4.87999 18.1304 4.73492 18.0159 4.61229C17.9014 4.48965 17.7648 4.39188 17.6138 4.32461C17.4628 4.25735 17.3006 4.22194 17.1364 4.22042H17.1025C17.1025 4.22042 15.2196 3.9849 12.9186 3.98097Z" fill="white"/>
<path d="M12.4609 20.1423C11.2784 20.1423 10.4612 20.0677 10.3181 20.056C9.85491 20.0481 9.41246 19.8544 9.08279 19.5151C8.75313 19.1759 8.56162 18.7172 8.54812 18.2346C8.50669 17.9637 8.40125 16.9117 8.40125 13.1315C8.40125 8.93526 8.53682 7.2434 8.55565 7.01573C8.56138 6.53165 8.74714 6.06878 9.07379 5.72463C9.40044 5.38049 9.84248 5.18193 10.3068 5.17078C11.2284 5.03166 12.1587 4.96473 13.0898 4.97058C13.959 4.95306 14.8278 5.02141 15.6846 5.17471C16.1422 5.18848 16.5775 5.38386 16.9015 5.72092C17.2256 6.05798 17.414 6.51129 17.4282 6.98825C17.4771 7.28265 17.6014 8.40925 17.5977 12.4838C17.5977 16.7311 17.4583 17.9794 17.4244 18.2503C17.4136 18.7393 17.2196 19.2046 16.8839 19.5464C16.5481 19.8883 16.0974 20.0797 15.6281 20.0795C14.3627 20.1345 14.3627 20.1345 12.9919 20.158L12.4609 20.1423ZM13.1087 5.9441C12.2115 5.93592 11.315 6.00023 10.4273 6.13644H10.3482C10.1238 6.13643 9.90846 6.22882 9.74906 6.39349C9.58966 6.55817 9.49912 6.78181 9.49713 7.01573C9.49713 7.01573 9.49713 7.04713 9.49713 7.06283C9.49713 7.07853 9.3465 8.75077 9.3465 13.108C9.3465 17.2925 9.4783 18.0344 9.48207 18.0658C9.48577 18.101 9.48577 18.1365 9.48207 18.1718C9.48207 18.407 9.57174 18.6327 9.73135 18.7991C9.89096 18.9654 10.1074 19.0589 10.3332 19.0589H10.3784C10.3784 19.0589 11.4592 19.1649 12.9656 19.1374C14.3288 19.1139 14.3288 19.1139 15.6017 19.0589C15.7151 19.061 15.8278 19.0396 15.9332 18.9961C16.0386 18.9525 16.1347 18.8876 16.2159 18.8051C16.2972 18.7227 16.3619 18.6242 16.4065 18.5155C16.451 18.4068 16.4744 18.29 16.4754 18.1718C16.4715 18.1418 16.4715 18.1114 16.4754 18.0815C16.4754 18.0422 16.6411 17.0334 16.6411 12.4446C16.6411 7.95783 16.4905 7.16098 16.4829 7.12565C16.479 7.08781 16.479 7.04964 16.4829 7.0118C16.4819 6.77683 16.392 6.55178 16.2326 6.38563C16.0732 6.21949 15.8573 6.12568 15.6318 6.12465H15.5302C14.7301 5.98668 13.9194 5.92624 13.1087 5.9441Z" fill="white"/>
<path d="M13.7775 21.5122H12.2372C12.1124 21.5122 11.9926 21.4606 11.9044 21.3685C11.8161 21.2765 11.7665 21.1517 11.7665 21.0216C11.7665 20.8914 11.8161 20.7666 11.9044 20.6746C11.9926 20.5826 12.1124 20.5309 12.2372 20.5309H13.7775C13.9023 20.5309 14.0221 20.5826 14.1104 20.6746C14.1986 20.7666 14.2482 20.8914 14.2482 21.0216C14.2482 21.1517 14.1986 21.2765 14.1104 21.3685C14.0221 21.4606 13.9023 21.5122 13.7775 21.5122Z" fill="white"/>
</g>
<defs>
<clipPath id="clip0_1287_10743">
<rect width="13" height="20" fill="white" transform="translate(6.5 3)"/>
</clipPath>
</defs>
</svg>
