<svg xmlns="http://www.w3.org/2000/svg" width="50" height="50" viewBox="0 0 50 50" fill="none"><g clip-path="url(#clip0_669_9905)"><path d="M8.47855 19.1487C7.49648 19.1502 6.53605 18.858 5.71875 18.3089C4.90145 17.7598 4.26401 16.9786 3.88713 16.0641C3.51025 15.1496 3.41087 14.1429 3.60153 13.1714C3.79218 12.2 4.2643 11.3073 4.95819 10.6065C5.65208 9.90571 6.53652 9.42822 7.49961 9.23445C8.4627 9.04068 9.46114 9.13935 10.3686 9.51797C11.2761 9.8966 12.0518 10.5382 12.5976 11.3615C13.1433 12.1848 13.4346 13.1529 13.4346 14.1432C13.4326 15.4688 12.91 16.7396 11.9812 17.6776C11.0524 18.6156 9.79306 19.1446 8.47855 19.1487ZM8.47855 9.91495C7.64893 9.91341 6.8375 10.1601 6.14695 10.6238C5.4564 11.0874 4.91778 11.7472 4.59924 12.5197C4.2807 13.2922 4.19656 14.1426 4.35748 14.9633C4.5184 15.784 4.91715 16.5381 5.50324 17.1303C6.08933 17.7224 6.83644 18.1258 7.65001 18.2896C8.46358 18.4534 9.30701 18.3701 10.0736 18.0503C10.8403 17.7305 11.4956 17.1886 11.9567 16.4931C12.4177 15.7976 12.6638 14.9798 12.6638 14.1432C12.6618 13.0238 12.2205 11.9507 11.4362 11.1584C10.652 10.3661 9.58864 9.91905 8.47855 9.91495Z" fill="#1E1F3A"></path><path d="M16.4868 31.2658H0.385386C0.283175 31.2658 0.185133 31.2249 0.112859 31.152C0.0405851 31.0791 0 30.9803 0 30.8772V23.812C0.0020416 22.76 0.417928 21.7517 1.15635 21.0086C1.89477 20.2654 2.89538 19.848 3.93864 19.848H12.9336C13.9768 19.848 14.9775 20.2654 15.7159 21.0086C16.4543 21.7517 16.8702 22.76 16.8722 23.812V30.8772C16.8722 30.9803 16.8316 31.0791 16.7593 31.152C16.687 31.2249 16.589 31.2658 16.4868 31.2658ZM0.770772 30.4886H16.1014V23.812C16.0994 22.9661 15.7647 22.1556 15.1709 21.5582C14.577 20.9608 13.7724 20.6253 12.9336 20.6253H3.93864C3.0998 20.6253 2.29522 20.9608 1.70135 21.5582C1.10748 22.1556 0.772813 22.9661 0.770772 23.812V30.4886Z" fill="#1E1F3A"></path><path d="M13.1494 31.2659C13.0472 31.2659 12.9492 31.225 12.8769 31.1521C12.8046 31.0792 12.764 30.9804 12.764 30.8773V25.5687C12.764 25.4656 12.8046 25.3668 12.8769 25.2939C12.9492 25.221 13.0472 25.1801 13.1494 25.1801C13.2516 25.1801 13.3497 25.221 13.422 25.2939C13.4942 25.3668 13.5348 25.4656 13.5348 25.5687V30.8773C13.5328 30.9798 13.4916 31.0774 13.4197 31.1499C13.3479 31.2223 13.251 31.2639 13.1494 31.2659Z" fill="#1E1F3A"></path><path d="M3.72291 31.2659C3.62132 31.2639 3.52445 31.2223 3.45259 31.1499C3.38074 31.0774 3.3395 30.9798 3.33752 30.8773V25.5687C3.33752 25.4656 3.37811 25.3668 3.45038 25.2939C3.52266 25.221 3.6207 25.1801 3.72291 25.1801C3.82512 25.1801 3.92312 25.221 3.99539 25.2939C4.06766 25.3668 4.1083 25.4656 4.1083 25.5687V30.8773C4.1083 30.9804 4.06766 31.0792 3.99539 31.1521C3.92312 31.225 3.82512 31.2659 3.72291 31.2659Z" fill="#1E1F3A"></path><path d="M49.6146 31.2658H33.5132C33.4116 31.2639 33.3147 31.2223 33.2429 31.1498C33.171 31.0774 33.1298 30.9797 33.1278 30.8772V23.812C33.1319 22.7606 33.5484 21.7536 34.2864 21.0108C35.0243 20.2681 36.0239 19.8501 37.0665 19.848H46.0614C47.1046 19.848 48.1053 20.2654 48.8437 21.0086C49.5821 21.7517 49.998 22.76 50 23.812V30.8772C50 30.9803 49.9594 31.0791 49.8872 31.152C49.8149 31.2249 49.7168 31.2658 49.6146 31.2658ZM33.8986 30.4886H49.2292V23.812C49.2272 22.9661 48.8925 22.1556 48.2987 21.5582C47.7048 20.9608 46.9002 20.6253 46.0614 20.6253H37.0665C36.2277 20.6253 35.423 20.9608 34.8292 21.5582C34.2353 22.1556 33.9006 22.9661 33.8986 23.812V30.4886Z" fill="#1E1F3A"></path><path d="M41.5678 19.1487C40.586 19.1487 39.6263 18.8551 38.81 18.3051C37.9937 17.7551 37.3575 16.9734 36.9818 16.0587C36.6061 15.1441 36.5079 14.1376 36.6994 13.1667C36.8909 12.1957 37.3636 11.3038 38.0578 10.6038C38.752 9.90375 39.6365 9.42701 40.5994 9.23387C41.5623 9.04074 42.5603 9.13987 43.4673 9.51873C44.3743 9.89758 45.1496 10.5391 45.695 11.3623C46.2404 12.1854 46.5315 13.1532 46.5315 14.1432C46.5295 15.4701 46.0059 16.7421 45.0754 17.6803C44.145 18.6186 42.8836 19.1466 41.5678 19.1487ZM41.5678 9.91495C40.7385 9.91495 39.9278 10.1629 39.2383 10.6275C38.5487 11.0922 38.0113 11.7525 37.6939 12.5251C37.3766 13.2977 37.2936 14.1479 37.4553 14.9681C37.6171 15.7883 38.0164 16.5417 38.6028 17.133C39.1892 17.7243 39.9364 18.127 40.7498 18.2902C41.5631 18.4533 42.4062 18.3696 43.1723 18.0496C43.9385 17.7296 44.5934 17.1876 45.0541 16.4923C45.5148 15.797 45.7608 14.9795 45.7608 14.1432C45.7587 13.0224 45.3163 11.9481 44.5304 11.1556C43.7445 10.3631 42.6792 9.91701 41.5678 9.91495Z" fill="#1E1F3A"></path><path d="M36.8584 31.2659C36.7562 31.2659 36.6582 31.225 36.5859 31.1521C36.5136 31.0792 36.473 30.9804 36.473 30.8773V25.5687C36.473 25.4656 36.5136 25.3668 36.5859 25.2939C36.6582 25.221 36.7562 25.1801 36.8584 25.1801C36.9606 25.1801 37.0586 25.221 37.1309 25.2939C37.2032 25.3668 37.2438 25.4656 37.2438 25.5687V30.8773C37.2418 30.9798 37.2006 31.0774 37.1287 31.1499C37.0569 31.2223 36.96 31.2639 36.8584 31.2659Z" fill="#1E1F3A"></path><path d="M46.2463 31.2659C46.1441 31.2659 46.0461 31.225 45.9738 31.1521C45.9015 31.0792 45.861 30.9804 45.861 30.8773V25.5687C45.861 25.4656 45.9015 25.3668 45.9738 25.2939C46.0461 25.221 46.1441 25.1801 46.2463 25.1801C46.3486 25.1801 46.4466 25.221 46.5189 25.2939C46.5911 25.3668 46.6317 25.4656 46.6317 25.5687V30.8773C46.6317 30.9804 46.5911 31.0792 46.5189 31.1521C46.4466 31.225 46.3486 31.2659 46.2463 31.2659Z" fill="#1E1F3A"></path><path d="M25.0039 44.9999C21.321 45.0035 17.7065 43.9972 14.5471 42.0886C11.3878 40.1801 8.80252 37.4412 7.06801 34.165C7.02074 34.074 7.01041 33.968 7.03917 33.8693C7.06793 33.7707 7.13354 33.6872 7.22217 33.6365C7.26714 33.6122 7.31646 33.5971 7.36726 33.5921C7.41805 33.5872 7.46932 33.5925 7.51808 33.6076C7.56684 33.6228 7.61213 33.6476 7.65131 33.6806C7.69049 33.7136 7.72276 33.7541 7.74629 33.7997C10.1762 38.3706 14.2909 41.7948 19.2024 43.3332C24.1139 44.8717 29.4283 44.4011 33.9988 42.023C34.0432 41.9989 34.0919 41.9839 34.1421 41.9791C34.1924 41.9742 34.243 41.9795 34.2912 41.9948C34.3393 42.01 34.3839 42.0348 34.4224 42.0677C34.4609 42.1005 34.4925 42.1409 34.5152 42.1863C34.5615 42.2771 34.5705 42.3827 34.5402 42.4801C34.5099 42.5776 34.4428 42.6591 34.3534 42.707C31.4632 44.2132 28.2572 44.9994 25.0039 44.9999Z" fill="#1E1F3A"></path><path d="M36.5038 41.3236C36.4216 41.3243 36.3413 41.2983 36.2747 41.2496C36.2081 41.2009 36.1587 41.132 36.1337 41.053C36.1087 40.974 36.1095 40.8889 36.1358 40.8104C36.1622 40.7318 36.2129 40.6638 36.2803 40.6163C37.5218 39.7279 38.6595 38.7006 39.6717 37.554C39.7042 37.5151 39.7441 37.4832 39.7891 37.4602C39.834 37.4371 39.8831 37.4234 39.9333 37.4198C39.9836 37.4162 40.0341 37.4227 40.0819 37.4391C40.1296 37.4555 40.1736 37.4813 40.2112 37.5151C40.2877 37.5839 40.3346 37.68 40.3418 37.7831C40.349 37.8862 40.3159 37.988 40.2498 38.0669C39.1996 39.2608 38.0179 40.3299 36.7274 41.2537C36.6614 41.2989 36.5836 41.3232 36.5038 41.3236Z" fill="#1E1F3A"></path><path d="M41.2286 36.5902C41.1577 36.5906 41.0881 36.5712 41.0273 36.5342C40.9666 36.4973 40.9172 36.4441 40.8845 36.3806C40.8518 36.3171 40.8372 36.2458 40.8421 36.1744C40.8471 36.1031 40.8715 36.0345 40.9126 35.9762C41.4062 35.2794 41.8567 34.5526 42.2615 33.7999C42.2843 33.7545 42.3158 33.7142 42.3543 33.6813C42.3928 33.6484 42.4374 33.6236 42.4855 33.6084C42.5337 33.5932 42.5843 33.5878 42.6346 33.5927C42.6848 33.5975 42.7335 33.6125 42.7779 33.6367C42.8232 33.6604 42.8633 33.693 42.896 33.7325C42.9287 33.772 42.9533 33.8176 42.9684 33.8668C42.9834 33.916 42.9887 33.9677 42.9838 34.0189C42.9789 34.0701 42.9639 34.1198 42.9398 34.1652C42.5243 34.9508 42.0556 35.7065 41.537 36.427C41.5028 36.4776 41.4568 36.519 41.403 36.5475C41.3493 36.5759 41.2894 36.5906 41.2286 36.5902Z" fill="#1E1F3A"></path><path d="M36.5038 8.21273C36.4266 8.21129 36.3515 8.18696 36.288 8.14278C33.8652 6.49916 31.1089 5.42216 28.2204 4.9905C25.332 4.55883 22.3844 4.7834 19.593 5.6478C19.5424 5.66311 19.4893 5.66822 19.4367 5.66284C19.3842 5.65745 19.3332 5.64168 19.2867 5.61642C19.2401 5.59116 19.199 5.5569 19.1656 5.51561C19.1322 5.47432 19.1072 5.4268 19.092 5.37577C19.0769 5.32473 19.0718 5.27117 19.0771 5.21816C19.0825 5.16515 19.0981 5.11373 19.1231 5.06682C19.1482 5.0199 19.1822 4.97842 19.2231 4.94474C19.2641 4.91107 19.3112 4.88586 19.3618 4.87055C22.2644 3.97435 25.3287 3.74236 28.3315 4.19145C31.3343 4.64054 34.1999 5.75941 36.7196 7.46656C36.8046 7.52498 36.8635 7.61468 36.8837 7.71639C36.9039 7.81811 36.8837 7.92376 36.8275 8.01065C36.7944 8.06876 36.7475 8.11764 36.691 8.15292C36.6344 8.1882 36.5701 8.20875 36.5038 8.21273Z" fill="#1E1F3A"></path><path d="M13.4963 8.7101C13.4154 8.7101 13.3365 8.68444 13.2709 8.63674C13.2053 8.58905 13.1562 8.52175 13.1306 8.44437C13.105 8.36699 13.1042 8.28346 13.1284 8.2056C13.1525 8.12775 13.2003 8.05952 13.265 8.01058C14.657 6.97694 16.1717 6.12309 17.774 5.46896C17.8691 5.43083 17.9753 5.43232 18.0692 5.47314C18.1632 5.51395 18.2372 5.59074 18.275 5.68659C18.3129 5.78245 18.3113 5.88953 18.2709 5.98428C18.2304 6.07902 18.1543 6.15367 18.0592 6.1918C16.5168 6.81649 15.0609 7.63942 13.7275 8.64015C13.6591 8.68642 13.5786 8.7108 13.4963 8.7101Z" fill="#1E1F3A"></path><path d="M30.5226 19.6438C31.0736 16.5467 29.0305 13.5857 25.9592 13.0301C22.888 12.4745 19.9516 14.5348 19.4007 17.6319C18.8497 20.7289 20.8928 23.69 23.9641 24.2456C27.0353 24.8012 29.9717 22.7409 30.5226 19.6438Z" fill="#43C9B9"></path><path d="M25.0039 24.7371C23.81 24.7386 22.6424 24.383 21.6489 23.7152C20.6554 23.0474 19.8807 22.0975 19.4227 20.9855C18.9647 19.8736 18.8441 18.6497 19.0761 17.4687C19.3081 16.2876 19.8823 15.2025 20.726 14.3506C21.5697 13.4987 22.6451 12.9183 23.816 12.6828C24.9869 12.4474 26.2007 12.5674 27.304 13.0278C28.4072 13.4882 29.3502 14.2683 30.0137 15.2692C30.6772 16.2702 31.0314 17.4472 31.0314 18.6512C31.0293 20.2633 30.3939 21.8089 29.2642 22.9495C28.1345 24.0902 26.6026 24.7329 25.0039 24.7371ZM25.0039 13.3503C23.9621 13.3488 22.9432 13.659 22.0763 14.2418C21.2094 14.8245 20.5335 15.6535 20.1341 16.6238C19.7347 17.5942 19.6298 18.6622 19.8326 19.6927C20.0355 20.7232 20.537 21.6698 21.2737 22.4127C22.0104 23.1556 22.9492 23.6614 23.9711 23.8659C24.993 24.0705 26.0521 23.9647 27.0144 23.562C27.9766 23.1592 28.7987 22.4776 29.3766 21.6034C29.9545 20.7292 30.2621 19.7018 30.2606 18.6512C30.2586 17.2459 29.7041 15.8988 28.7187 14.9052C27.7333 13.9115 26.3975 13.3524 25.0039 13.3503Z" fill="#1E1F3A"></path><path d="M34.9391 37.8104H15.0686V30.582C15.0686 29.409 15.5307 28.2842 16.3531 27.4548C17.1756 26.6254 18.2911 26.1594 19.4543 26.1594H30.5534C31.7166 26.1594 32.8321 26.6254 33.6546 27.4548C34.4771 28.2842 34.9391 29.409 34.9391 30.582V37.8104Z" fill="#43C9B9"></path><path d="M34.9391 38.199H15.0686C14.9664 38.199 14.8684 38.1581 14.7961 38.0852C14.7239 38.0123 14.6832 37.9134 14.6832 37.8104V30.5819C14.6832 29.3059 15.1859 28.0822 16.0807 27.1799C16.9754 26.2777 18.1889 25.7708 19.4543 25.7708H30.5534C31.8182 25.7728 33.0306 26.2804 33.9249 27.1822C34.8192 28.084 35.3225 29.3066 35.3245 30.5819V37.8026C35.3246 37.9064 35.2842 38.0061 35.2121 38.0802C35.1401 38.1543 35.0421 38.197 34.9391 38.199ZM15.454 37.4217H34.5538V30.5819C34.5517 29.5127 34.1296 28.4879 33.3798 27.7318C32.6301 26.9757 31.6138 26.5501 30.5534 26.548H19.4543C18.394 26.5501 17.3777 26.9757 16.6279 27.7318C15.8782 28.4879 15.456 29.5127 15.454 30.5819V37.4217Z" fill="#1E1F3A"></path><path d="M30.8309 38.1991C30.7287 38.1991 30.6307 38.1582 30.5584 38.0853C30.4861 38.0124 30.4456 37.9135 30.4456 37.8105V32.7506C30.4456 32.6475 30.4861 32.5486 30.5584 32.4757C30.6307 32.4029 30.7287 32.3619 30.8309 32.3619C30.9325 32.3639 31.0294 32.4055 31.1013 32.478C31.1731 32.5504 31.2144 32.6481 31.2163 32.7506V37.8105C31.2144 37.9129 31.1731 38.0106 31.1013 38.0831C31.0294 38.1555 30.9325 38.1971 30.8309 38.1991Z" fill="#1E1F3A"></path><path d="M19.1921 38.1991C19.0899 38.1991 18.9919 38.1582 18.9196 38.0853C18.8473 38.0124 18.8068 37.9135 18.8068 37.8105V32.7506C18.8068 32.6475 18.8473 32.5486 18.9196 32.4757C18.9919 32.4029 19.0899 32.3619 19.1921 32.3619C19.2937 32.3639 19.3906 32.4055 19.4625 32.478C19.5343 32.5504 19.5756 32.6481 19.5775 32.7506V37.8105C19.5756 37.9129 19.5343 38.0106 19.4625 38.0831C19.3906 38.1555 19.2937 38.1971 19.1921 38.1991Z" fill="#1E1F3A"></path></g><defs><clipPath id="clip0_669_9905"><rect width="50" height="41" fill="white" transform="translate(0 4)"></rect></clipPath></defs></svg>