<svg xmlns="http://www.w3.org/2000/svg" width="50" height="50" viewBox="0 0 50 50" fill="none"><g clip-path="url(#clip0_619_1337)"><path d="M29.7057 18.0008C29.555 18.0008 29.4105 17.9409 29.3039 17.8344C29.1974 17.7278 29.1375 17.5833 29.1375 17.4326V10.1937C29.1375 10.043 29.1974 9.89846 29.3039 9.7919C29.4105 9.68534 29.555 9.62549 29.7057 9.62549C29.8555 9.6284 29.9983 9.68919 30.1043 9.79513C30.2102 9.90106 30.271 10.0439 30.2739 10.1937V17.4667C30.2626 17.6105 30.1982 17.7448 30.0931 17.8436C29.988 17.9424 29.8499 17.9984 29.7057 18.0008Z" fill="#1E1F3A"></path><path d="M23.3759 18.0007C23.2252 18.0007 23.0807 17.9408 22.9741 17.8343C22.8675 17.7277 22.8077 17.5832 22.8077 17.4325V8.87533C22.8077 8.72464 22.8675 8.5801 22.9741 8.47354C23.0807 8.36698 23.2252 8.30713 23.3759 8.30713C23.5266 8.30713 23.6711 8.36698 23.7777 8.47354C23.8842 8.5801 23.9441 8.72464 23.9441 8.87533V17.4666C23.9441 17.6173 23.8842 17.7618 23.7777 17.8684C23.6711 17.9749 23.5266 18.0348 23.3759 18.0348V18.0007Z" fill="#1E1F3A"></path><path d="M36.024 18.0007C35.8733 18.0007 35.7287 17.9409 35.6222 17.8343C35.5156 17.7277 35.4557 17.5832 35.4557 17.4325V12.33C35.4587 12.1803 35.5195 12.0374 35.6254 11.9315C35.7313 11.8255 35.8742 11.7648 36.024 11.7618C36.1747 11.7618 36.3192 11.8217 36.4257 11.9283C36.5323 12.0348 36.5922 12.1793 36.5922 12.33V17.4666C36.5922 17.6173 36.5323 17.7618 36.4257 17.8684C36.3192 17.9749 36.1747 18.0348 36.024 18.0348V18.0007Z" fill="#1E1F3A"></path><path d="M36.024 8.64798C35.8733 8.64798 35.7287 8.58811 35.6222 8.48155C35.5156 8.37499 35.4557 8.23047 35.4557 8.07978V4.03415C35.4557 3.88345 35.5156 3.73893 35.6222 3.63237C35.7287 3.52581 35.8733 3.46594 36.024 3.46594C36.1747 3.46594 36.3192 3.52581 36.4257 3.63237C36.5323 3.73893 36.5922 3.88345 36.5922 4.03415V8.07978C36.5922 8.23047 36.5323 8.37499 36.4257 8.48155C36.3192 8.58811 36.1747 8.64798 36.024 8.64798Z" fill="#1E1F3A"></path><path d="M17.0688 18.0008C16.9181 18.0008 16.7735 17.941 16.667 17.8344C16.5604 17.7278 16.5005 17.5833 16.5005 17.4326V13.3075C16.5005 13.1568 16.5604 13.0122 16.667 12.9057C16.7735 12.7991 16.9181 12.7393 17.0688 12.7393C17.2195 12.7393 17.364 12.7991 17.4705 12.9057C17.5771 13.0122 17.637 13.1568 17.637 13.3075V17.4667C17.6283 17.6114 17.5646 17.7474 17.4589 17.8466C17.3533 17.9459 17.2137 18.0011 17.0688 18.0008Z" fill="#1E1F3A"></path><path d="M17.0688 10.2278C16.9181 10.2278 16.7735 10.1679 16.667 10.0613C16.5604 9.95476 16.5005 9.81025 16.5005 9.65955V6.50033C16.5005 6.34964 16.5604 6.2051 16.667 6.09854C16.7735 5.99198 16.9181 5.93213 17.0688 5.93213C17.2195 5.93213 17.364 5.99198 17.4705 6.09854C17.5771 6.2051 17.637 6.34964 17.637 6.50033V9.65955C17.637 9.81025 17.5771 9.95476 17.4705 10.0613C17.364 10.1679 17.2195 10.2278 17.0688 10.2278Z" fill="#1E1F3A"></path><path d="M17.0689 7.06855C16.4688 7.06855 15.8821 6.89059 15.3832 6.55718C14.8842 6.22378 14.4953 5.7499 14.2656 5.19547C14.036 4.64104 13.9759 4.03096 14.093 3.44238C14.21 2.8538 14.499 2.31316 14.9234 1.88882C15.3477 1.46447 15.8884 1.1755 16.4769 1.05843C17.0655 0.941351 17.6756 1.00143 18.23 1.23108C18.7844 1.46074 19.2583 1.84964 19.5917 2.34861C19.9251 2.84758 20.1031 3.43421 20.1031 4.03432C20.1001 4.83812 19.7795 5.60815 19.2111 6.17653C18.6427 6.74491 17.8727 7.06555 17.0689 7.06855ZM17.0689 2.13652C16.6935 2.13652 16.3266 2.24783 16.0145 2.45636C15.7024 2.66489 15.4592 2.9613 15.3155 3.30808C15.1719 3.65486 15.1343 4.03643 15.2075 4.40457C15.2808 4.77271 15.4615 5.11087 15.7269 5.37628C15.9923 5.64169 16.3305 5.82245 16.6986 5.89567C17.0668 5.9689 17.4484 5.93132 17.7951 5.78768C18.1419 5.64404 18.4383 5.40079 18.6468 5.08869C18.8554 4.7766 18.9667 4.40967 18.9667 4.03432C18.9667 3.53099 18.7667 3.04829 18.4108 2.69238C18.0549 2.33647 17.5722 2.13652 17.0689 2.13652Z" fill="#1E1F3A"></path><path d="M29.7055 10.7618C29.1054 10.7618 28.5188 10.5838 28.0198 10.2504C27.5209 9.91702 27.132 9.44314 26.9023 8.88871C26.6726 8.33428 26.6126 7.72419 26.7296 7.13562C26.8467 6.54704 27.1357 6.00639 27.56 5.58205C27.9844 5.15771 28.525 4.86874 29.1136 4.75166C29.7022 4.63459 30.3123 4.69467 30.8667 4.92432C31.4211 5.15397 31.895 5.54287 32.2284 6.04185C32.5618 6.54082 32.7397 7.12745 32.7397 7.72756C32.7412 8.12644 32.6638 8.52167 32.5118 8.89048C32.3599 9.25929 32.1365 9.59438 31.8544 9.87643C31.5724 10.1585 31.2373 10.3819 30.8685 10.5339C30.4997 10.6858 30.1044 10.7633 29.7055 10.7618ZM29.7055 5.82976C29.3302 5.82976 28.9633 5.94106 28.6512 6.1496C28.3391 6.35813 28.0958 6.65454 27.9522 7.00132C27.8086 7.34809 27.771 7.72967 27.8442 8.09781C27.9174 8.46594 28.0982 8.80411 28.3636 9.06952C28.629 9.33493 28.9672 9.51568 29.3353 9.58891C29.7034 9.66214 30.085 9.62455 30.4318 9.48091C30.7786 9.33727 31.075 9.09402 31.2835 8.78193C31.492 8.46984 31.6033 8.10291 31.6033 7.72756C31.6033 7.22423 31.4034 6.74152 31.0475 6.38562C30.6916 6.02971 30.2089 5.82976 29.7055 5.82976Z" fill="#1E1F3A"></path><path d="M44.9221 43.0244H8.65932C8.02535 43.0214 7.41837 42.7674 6.97114 42.3181C6.52392 41.8687 6.27285 41.2605 6.27285 40.6266V19.2621C6.27136 18.9477 6.33197 18.6362 6.45123 18.3453C6.57049 18.0545 6.74605 17.7901 6.9678 17.5672C7.18955 17.3444 7.45314 17.1676 7.74343 17.047C8.03371 16.9263 8.34497 16.8643 8.65932 16.8643H44.9221C45.558 16.8643 46.168 17.1169 46.6176 17.5666C47.0673 18.0162 47.3199 18.6261 47.3199 19.2621V40.6266C47.3169 41.2616 47.0634 41.8697 46.6143 42.3188C46.1653 42.7678 45.5571 43.0214 44.9221 43.0244ZM8.65932 18.0234C8.32674 18.0264 8.0088 18.1606 7.77469 18.3968C7.54058 18.6331 7.40925 18.9522 7.40926 19.2848V40.6493C7.40925 40.9819 7.54058 41.301 7.77469 41.5373C8.0088 41.7735 8.32674 41.9077 8.65932 41.9107H44.9221C45.2567 41.9107 45.5775 41.7778 45.8141 41.5412C46.0506 41.3047 46.1835 40.9838 46.1835 40.6493V19.2848C46.1835 19.1192 46.1509 18.9551 46.0875 18.8021C46.0241 18.649 45.9312 18.51 45.8141 18.3929C45.6969 18.2757 45.5579 18.1828 45.4048 18.1194C45.2518 18.056 45.0878 18.0234 44.9221 18.0234H8.65932Z" fill="#1E1F3A"></path><path d="M40.1606 48.3314H3.89782C3.26385 48.3314 2.65566 48.0803 2.2063 47.6331C1.75695 47.1859 1.503 46.5789 1.5 45.9449V24.5804C1.5 24.2656 1.56202 23.9538 1.68252 23.6628C1.80303 23.3719 1.97964 23.1076 2.2023 22.8849C2.42495 22.6623 2.6893 22.4856 2.98021 22.3651C3.27113 22.2446 3.58294 22.1826 3.89782 22.1826H6.84112C6.99182 22.1826 7.13633 22.2425 7.24289 22.349C7.34945 22.4556 7.40932 22.6001 7.40932 22.7508C7.40641 22.9006 7.34562 23.0435 7.23968 23.1494C7.13375 23.2553 6.9909 23.3161 6.84112 23.319H3.89782C3.56328 23.319 3.24242 23.4519 3.00586 23.6885C2.7693 23.9251 2.63641 24.2459 2.63641 24.5804V45.9449C2.63941 46.2775 2.77363 46.5954 3.00987 46.8295C3.2461 47.0636 3.56524 47.195 3.89782 47.195H40.1606C40.4932 47.195 40.8124 47.0636 41.0486 46.8295C41.2848 46.5954 41.419 46.2775 41.422 45.9449V42.4675C41.422 42.3168 41.4819 42.1723 41.5885 42.0657C41.695 41.9592 41.8395 41.8993 41.9902 41.8993C42.1409 41.8993 42.2855 41.9592 42.392 42.0657C42.4986 42.1723 42.5584 42.3168 42.5584 42.4675V45.9563C42.5524 46.5883 42.2972 47.1924 41.8481 47.6371C41.3991 48.0819 40.7927 48.3314 40.1606 48.3314Z" fill="#1E1F3A"></path><path d="M46.7517 27.5808H6.84103C6.69033 27.5808 6.54582 27.5209 6.43926 27.4144C6.3327 27.3078 6.27283 27.1633 6.27283 27.0126V22.6488C6.27283 22.4981 6.3327 22.3536 6.43926 22.247C6.54582 22.1404 6.69033 22.0806 6.84103 22.0806H46.7517C46.9024 22.0806 47.0469 22.1404 47.1535 22.247C47.26 22.3536 47.3199 22.4981 47.3199 22.6488V27.0126C47.3199 27.1633 47.26 27.3078 47.1535 27.4144C47.0469 27.5209 46.9024 27.5808 46.7517 27.5808Z" fill="#A2A5FF"></path><path d="M46.7517 27.5808H6.84103C6.69033 27.5808 6.54582 27.5209 6.43926 27.4144C6.3327 27.3078 6.27283 27.1633 6.27283 27.0126V22.6488C6.27283 22.4981 6.3327 22.3536 6.43926 22.247C6.54582 22.1404 6.69033 22.0806 6.84103 22.0806H46.7517C46.9024 22.0806 47.0469 22.1404 47.1535 22.247C47.26 22.3536 47.3199 22.4981 47.3199 22.6488V27.0126C47.3199 27.1633 47.26 27.3078 47.1535 27.4144C47.0469 27.5209 46.9024 27.5808 46.7517 27.5808ZM7.40924 26.4444H46.1835V23.217H7.40924V26.4444Z" fill="#1E1F3A"></path><path d="M41.388 37.9219H10.9095C10.7588 37.9219 10.6143 37.8621 10.5077 37.7555C10.4012 37.6489 10.3413 37.5044 10.3413 37.3537C10.3413 37.203 10.4012 37.0585 10.5077 36.952C10.6143 36.8454 10.7588 36.7855 10.9095 36.7855H41.388C41.5387 36.7855 41.6832 36.8454 41.7898 36.952C41.8963 37.0585 41.9562 37.203 41.9562 37.3537C41.9562 37.5044 41.8963 37.6489 41.7898 37.7555C41.6832 37.8621 41.5387 37.9219 41.388 37.9219Z" fill="#1E1F3A"></path><path d="M23.5123 34.2287H10.9095C10.7588 34.2287 10.6143 34.1688 10.5077 34.0623C10.4012 33.9557 10.3413 33.8112 10.3413 33.6605C10.3413 33.5098 10.4012 33.3653 10.5077 33.2587C10.6143 33.1522 10.7588 33.0923 10.9095 33.0923H23.5123C23.663 33.0923 23.8075 33.1522 23.9141 33.2587C24.0206 33.3653 24.0805 33.5098 24.0805 33.6605C24.0805 33.7351 24.0658 33.809 24.0372 33.8779C24.0087 33.9469 23.9668 34.0095 23.9141 34.0623C23.8613 34.115 23.7987 34.1569 23.7297 34.1854C23.6608 34.214 23.5869 34.2287 23.5123 34.2287Z" fill="#1E1F3A"></path></g><defs><clipPath id="clip0_619_1337"><rect width="45.82" height="47.3428" fill="white" transform="translate(1.5 1)"></rect></clipPath></defs></svg>