<svg width="33" height="24" viewBox="0 0 33 24" fill="none" xmlns="http://www.w3.org/2000/svg">
<path d="M0.0810058 14.4835C-0.937661 7.59328 7.90291 2.62533 12.4505 1.00263C12.6324 0.936774 12.2686 2.12604 12.2686 2.31327C12.2686 2.50051 12.4505 2.68774 12.4505 3.43668C12.4505 4.18562 5.35624 5.30902 5.17434 11.1133C4.99243 16.9175 14.8153 11.1133 14.9972 18.2282C15.1427 23.9201 9.60068 24.3445 6.81148 23.8452C4.99243 23.5956 1.09967 21.3737 0.0810058 14.4835Z" fill="#4C74F2"/>
<path d="M17.0864 14.0697C15.9998 6.87994 25.4298 1.696 30.2806 0.00274875C30.4746 -0.0659753 30.0865 1.175 30.0865 1.37037C30.0865 1.56575 30.2806 1.76112 30.2806 2.54262C30.2806 3.32412 22.4033 4.81838 22.2093 10.875C22.0153 16.9316 32.803 10.553 32.997 17.9772C33.1522 23.9166 27.2407 24.3595 24.2656 23.8385C22.3253 23.578 18.173 21.2595 17.0864 14.0697Z" fill="#4C74F2"/>
</svg>
